{
    "asset" : {
        "generator" : "Khronos glTF Blender I/O v1.8.19",
        "version" : "2.0"
    },
    "scene" : 0,
    "scenes" : [
        {
            "name" : "Scene",
            "nodes" : [
                0,
                1,
                2,
                3,
                4
            ]
        }
    ],
    "nodes" : [
        {
            "mesh" : 0,
            "name" : "setumei",
            "rotation" : [
                0.5,
                0.5,
                -0.5,
                0.4999999701976776
            ],
            "scale" : [
                0.2333073616027832,
                0.2333073616027832,
                0.2333073616027832
            ],
            "translation" : [
                -5.960464113741182e-05,
                0.9358811378479004,
                3.033409595489502
            ]
        },
        {
            "mesh" : 1,
            "name" : "zikisensa",
            "rotation" : [
                0.5000000596046448,
                0.4999999701976776,
                -0.4999999701976776,
                0.5
            ],
            "scale" : [
                0.44654786586761475,
                0.44654786586761475,
                0.44654786586761475
            ],
            "translation" : [
                0,
                1.9846453666687012,
                1.3388482332229614
            ]
        },
        {
            "mesh" : 2,
            "name" : "aikon kiban",
            "rotation" : [
                0,
                0,
                -0.7071067690849304,
                0.7071068286895752
            ],
            "scale" : [
                2.1348953247070312,
                1.7648110389709473,
                3.216747760772705
            ]
        },
        {
            "mesh" : 3,
            "name" : "houizisin hontai",
            "rotation" : [
                0,
                0,
                -0.7071067690849304,
                0.7071068286895752
            ],
            "scale" : [
                1.2973839044570923,
                1.2973839044570923,
                1.2973839044570923
            ],
            "translation" : [
                0.037344884127378464,
                -0.7352495789527893,
                -0.00022277323296293616
            ]
        },
        {
            "mesh" : 4,
            "name" : "houizisin hari",
            "rotation" : [
                -0.7071060538291931,
                -0.7071059942245483,
                -0.0010456362506374717,
                0.0010455744341015816
            ],
            "scale" : [
                0.47134026885032654,
                0.4713402986526489,
                0.47134026885032654
            ],
            "translation" : [
                0.08911129832267761,
                -0.789146900177002,
                0.0014353366568684578
            ]
        }
    ],
    "animations" : [
        {
            "channels" : [
                {
                    "sampler" : 0,
                    "target" : {
                        "node" : 4,
                        "path" : "rotation"
                    }
                }
            ],
            "name" : "houizisin hariAction",
            "samplers" : [
                {
                    "input" : 32,
                    "interpolation" : "LINEAR",
                    "output" : 33
                }
            ]
        }
    ],
    "materials" : [
        {
            "doubleSided" : true,
            "name" : "setumei black",
            "pbrMetallicRoughness" : {
                "baseColorFactor" : [
                    0.0033170117530971766,
                    0.0033170117530971766,
                    0.0033170117530971766,
                    1
                ],
                "metallicFactor" : 0,
                "roughnessFactor" : 0.4000000059604645
            }
        },
        {
            "doubleSided" : true,
            "name" : "aikon",
            "pbrMetallicRoughness" : {
                "baseColorFactor" : [
                    0.34932708740234375,
                    0.34932708740234375,
                    0.34932708740234375,
                    1
                ],
                "metallicFactor" : 0,
                "roughnessFactor" : 0.4000000059604645
            }
        },
        {
            "doubleSided" : true,
            "name" : "houizisin hontai",
            "pbrMetallicRoughness" : {
                "baseColorFactor" : [
                    0,
                    0,
                    0,
                    1
                ],
                "metallicFactor" : 0,
                "roughnessFactor" : 0.4000000059604645
            }
        },
        {
            "alphaMode" : "BLEND",
            "doubleSided" : true,
            "name" : "houizisin toumei",
            "pbrMetallicRoughness" : {
                "baseColorFactor" : [
                    0.800000011920929,
                    0.800000011920929,
                    0.800000011920929,
                    0.13385778665542603
                ],
                "roughnessFactor" : 0
            }
        },
        {
            "doubleSided" : true,
            "name" : "houizisin siro",
            "pbrMetallicRoughness" : {
                "baseColorFactor" : [
                    0.800000011920929,
                    0.800000011920929,
                    0.800000011920929,
                    1
                ],
                "metallicFactor" : 0,
                "roughnessFactor" : 0.5
            }
        },
        {
            "doubleSided" : true,
            "name" : "houizisin aka",
            "pbrMetallicRoughness" : {
                "baseColorFactor" : [
                    0.8000000715255737,
                    0,
                    0.01085854321718216,
                    1
                ],
                "metallicFactor" : 0,
                "roughnessFactor" : 0.5
            }
        }
    ],
    "meshes" : [
        {
            "name" : "\u30c6\u30ad\u30b9\u30c8.001",
            "primitives" : [
                {
                    "attributes" : {
                        "POSITION" : 0,
                        "NORMAL" : 1,
                        "TEXCOORD_0" : 2
                    },
                    "indices" : 3,
                    "material" : 0
                }
            ]
        },
        {
            "name" : "\u30c6\u30ad\u30b9\u30c8",
            "primitives" : [
                {
                    "attributes" : {
                        "POSITION" : 4,
                        "NORMAL" : 5,
                        "TEXCOORD_0" : 6
                    },
                    "indices" : 7,
                    "material" : 0
                }
            ]
        },
        {
            "name" : "\u5e73\u9762",
            "primitives" : [
                {
                    "attributes" : {
                        "POSITION" : 8,
                        "NORMAL" : 9,
                        "TEXCOORD_0" : 10
                    },
                    "indices" : 11,
                    "material" : 1
                }
            ]
        },
        {
            "name" : "\u5186",
            "primitives" : [
                {
                    "attributes" : {
                        "POSITION" : 12,
                        "NORMAL" : 13,
                        "TEXCOORD_0" : 14
                    },
                    "indices" : 15,
                    "material" : 2
                },
                {
                    "attributes" : {
                        "POSITION" : 16,
                        "NORMAL" : 17,
                        "TEXCOORD_0" : 18
                    },
                    "indices" : 19,
                    "material" : 3
                },
                {
                    "attributes" : {
                        "POSITION" : 20,
                        "NORMAL" : 21,
                        "TEXCOORD_0" : 22
                    },
                    "indices" : 23,
                    "material" : 4
                }
            ]
        },
        {
            "name" : "\u5e73\u9762.001",
            "primitives" : [
                {
                    "attributes" : {
                        "POSITION" : 24,
                        "NORMAL" : 25,
                        "TEXCOORD_0" : 26
                    },
                    "indices" : 27,
                    "material" : 4
                },
                {
                    "attributes" : {
                        "POSITION" : 28,
                        "NORMAL" : 29,
                        "TEXCOORD_0" : 30
                    },
                    "indices" : 31,
                    "material" : 5
                }
            ]
        }
    ],
    "accessors" : [
        {
            "bufferView" : 0,
            "componentType" : 5126,
            "count" : 141115,
            "max" : [
                26.2265625,
                0.4219529330730438,
                1.0859375
            ],
            "min" : [
                0.0078125,
                0,
                -0.8388671875
            ],
            "type" : "VEC3"
        },
        {
            "bufferView" : 1,
            "componentType" : 5126,
            "count" : 141115,
            "type" : "VEC3"
        },
        {
            "bufferView" : 2,
            "componentType" : 5126,
            "count" : 141115,
            "type" : "VEC2"
        },
        {
            "bufferView" : 3,
            "componentType" : 5125,
            "count" : 219444,
            "type" : "SCALAR"
        },
        {
            "bufferView" : 4,
            "componentType" : 5126,
            "count" : 20175,
            "max" : [
                5.9228515625,
                0.2204572707414627,
                1.06982421875
            ],
            "min" : [
                0.0078125,
                0,
                0.1552734375
            ],
            "type" : "VEC3"
        },
        {
            "bufferView" : 5,
            "componentType" : 5126,
            "count" : 20175,
            "type" : "VEC3"
        },
        {
            "bufferView" : 6,
            "componentType" : 5126,
            "count" : 20175,
            "type" : "VEC2"
        },
        {
            "bufferView" : 7,
            "componentType" : 5123,
            "count" : 31224,
            "type" : "SCALAR"
        },
        {
            "bufferView" : 8,
            "componentType" : 5126,
            "count" : 410,
            "max" : [
                1,
                0,
                1
            ],
            "min" : [
                -1,
                -0.2123003602027893,
                -1
            ],
            "type" : "VEC3"
        },
        {
            "bufferView" : 9,
            "componentType" : 5126,
            "count" : 410,
            "type" : "VEC3"
        },
        {
            "bufferView" : 10,
            "componentType" : 5126,
            "count" : 410,
            "type" : "VEC2"
        },
        {
            "bufferView" : 11,
            "componentType" : 5123,
            "count" : 804,
            "type" : "SCALAR"
        },
        {
            "bufferView" : 12,
            "componentType" : 5126,
            "count" : 96,
            "max" : [
                1,
                0.3062724769115448,
                1
            ],
            "min" : [
                -1,
                0,
                -1
            ],
            "type" : "VEC3"
        },
        {
            "bufferView" : 13,
            "componentType" : 5126,
            "count" : 96,
            "type" : "VEC3"
        },
        {
            "bufferView" : 14,
            "componentType" : 5126,
            "count" : 96,
            "type" : "VEC2"
        },
        {
            "bufferView" : 15,
            "componentType" : 5123,
            "count" : 282,
            "type" : "SCALAR"
        },
        {
            "bufferView" : 16,
            "componentType" : 5126,
            "count" : 32,
            "max" : [
                1,
                0.3062724769115448,
                1
            ],
            "min" : [
                -1,
                0.3062724769115448,
                -1
            ],
            "type" : "VEC3"
        },
        {
            "bufferView" : 17,
            "componentType" : 5126,
            "count" : 32,
            "type" : "VEC3"
        },
        {
            "bufferView" : 18,
            "componentType" : 5126,
            "count" : 32,
            "type" : "VEC2"
        },
        {
            "bufferView" : 19,
            "componentType" : 5123,
            "count" : 90,
            "type" : "SCALAR"
        },
        {
            "bufferView" : 20,
            "componentType" : 5126,
            "count" : 501,
            "max" : [
                0.8953104019165039,
                0.05328620597720146,
                0.9203330278396606
            ],
            "min" : [
                -0.9196188449859619,
                0.023626690730452538,
                -0.8436130881309509
            ],
            "type" : "VEC3"
        },
        {
            "bufferView" : 21,
            "componentType" : 5126,
            "count" : 501,
            "type" : "VEC3"
        },
        {
            "bufferView" : 22,
            "componentType" : 5126,
            "count" : 501,
            "type" : "VEC2"
        },
        {
            "bufferView" : 23,
            "componentType" : 5123,
            "count" : 1356,
            "type" : "SCALAR"
        },
        {
            "bufferView" : 24,
            "componentType" : 5126,
            "count" : 18,
            "max" : [
                0.00026023387908935547,
                0.07219290733337402,
                0.4011542499065399
            ],
            "min" : [
                -1.9997397661209106,
                -0.07219283282756805,
                -0.4028104841709137
            ],
            "type" : "VEC3"
        },
        {
            "bufferView" : 25,
            "componentType" : 5126,
            "count" : 18,
            "type" : "VEC3"
        },
        {
            "bufferView" : 26,
            "componentType" : 5126,
            "count" : 18,
            "type" : "VEC2"
        },
        {
            "bufferView" : 27,
            "componentType" : 5123,
            "count" : 24,
            "type" : "SCALAR"
        },
        {
            "bufferView" : 28,
            "componentType" : 5126,
            "count" : 18,
            "max" : [
                1.9997392892837524,
                0.0721929669380188,
                0.40083715319633484
            ],
            "min" : [
                -0.0014491081237792969,
                -0.07219313085079193,
                -0.4031241536140442
            ],
            "type" : "VEC3"
        },
        {
            "bufferView" : 29,
            "componentType" : 5126,
            "count" : 18,
            "type" : "VEC3"
        },
        {
            "bufferView" : 30,
            "componentType" : 5126,
            "count" : 18,
            "type" : "VEC2"
        },
        {
            "bufferView" : 31,
            "componentType" : 5123,
            "count" : 24,
            "type" : "SCALAR"
        },
        {
            "bufferView" : 32,
            "componentType" : 5126,
            "count" : 200,
            "max" : [
                8.333333333333334
            ],
            "min" : [
                0.041666666666666664
            ],
            "type" : "SCALAR"
        },
        {
            "bufferView" : 33,
            "componentType" : 5126,
            "count" : 200,
            "type" : "VEC4"
        }
    ],
    "bufferViews" : [
        {
            "buffer" : 0,
            "byteLength" : 1693380,
            "byteOffset" : 0
        },
        {
            "buffer" : 0,
            "byteLength" : 1693380,
            "byteOffset" : 1693380
        },
        {
            "buffer" : 0,
            "byteLength" : 1128920,
            "byteOffset" : 3386760
        },
        {
            "buffer" : 0,
            "byteLength" : 877776,
            "byteOffset" : 4515680
        },
        {
            "buffer" : 0,
            "byteLength" : 242100,
            "byteOffset" : 5393456
        },
        {
            "buffer" : 0,
            "byteLength" : 242100,
            "byteOffset" : 5635556
        },
        {
            "buffer" : 0,
            "byteLength" : 161400,
            "byteOffset" : 5877656
        },
        {
            "buffer" : 0,
            "byteLength" : 62448,
            "byteOffset" : 6039056
        },
        {
            "buffer" : 0,
            "byteLength" : 4920,
            "byteOffset" : 6101504
        },
        {
            "buffer" : 0,
            "byteLength" : 4920,
            "byteOffset" : 6106424
        },
        {
            "buffer" : 0,
            "byteLength" : 3280,
            "byteOffset" : 6111344
        },
        {
            "buffer" : 0,
            "byteLength" : 1608,
            "byteOffset" : 6114624
        },
        {
            "buffer" : 0,
            "byteLength" : 1152,
            "byteOffset" : 6116232
        },
        {
            "buffer" : 0,
            "byteLength" : 1152,
            "byteOffset" : 6117384
        },
        {
            "buffer" : 0,
            "byteLength" : 768,
            "byteOffset" : 6118536
        },
        {
            "buffer" : 0,
            "byteLength" : 564,
            "byteOffset" : 6119304
        },
        {
            "buffer" : 0,
            "byteLength" : 384,
            "byteOffset" : 6119868
        },
        {
            "buffer" : 0,
            "byteLength" : 384,
            "byteOffset" : 6120252
        },
        {
            "buffer" : 0,
            "byteLength" : 256,
            "byteOffset" : 6120636
        },
        {
            "buffer" : 0,
            "byteLength" : 180,
            "byteOffset" : 6120892
        },
        {
            "buffer" : 0,
            "byteLength" : 6012,
            "byteOffset" : 6121072
        },
        {
            "buffer" : 0,
            "byteLength" : 6012,
            "byteOffset" : 6127084
        },
        {
            "buffer" : 0,
            "byteLength" : 4008,
            "byteOffset" : 6133096
        },
        {
            "buffer" : 0,
            "byteLength" : 2712,
            "byteOffset" : 6137104
        },
        {
            "buffer" : 0,
            "byteLength" : 216,
            "byteOffset" : 6139816
        },
        {
            "buffer" : 0,
            "byteLength" : 216,
            "byteOffset" : 6140032
        },
        {
            "buffer" : 0,
            "byteLength" : 144,
            "byteOffset" : 6140248
        },
        {
            "buffer" : 0,
            "byteLength" : 48,
            "byteOffset" : 6140392
        },
        {
            "buffer" : 0,
            "byteLength" : 216,
            "byteOffset" : 6140440
        },
        {
            "buffer" : 0,
            "byteLength" : 216,
            "byteOffset" : 6140656
        },
        {
            "buffer" : 0,
            "byteLength" : 144,
            "byteOffset" : 6140872
        },
        {
            "buffer" : 0,
            "byteLength" : 48,
            "byteOffset" : 6141016
        },
        {
            "buffer" : 0,
            "byteLength" : 800,
            "byteOffset" : 6141064
        },
        {
            "buffer" : 0,
            "byteLength" : 3200,
            "byteOffset" : 6141864
        }
    ],
    "buffers" : [
        {
            "byteLength" : 6145064,
            "uri" : "zikisensa.bin"
        }
    ]
}
